<mxfile host="app.diagrams.net" agent="Mozilla/5.0 (Windows NT 10.0; Win64; x64) AppleWebKit/537.36 (KHTML, like Gecko) Chrome/132.0.0.0 Safari/537.36" version="26.0.10">
  <diagram name="Page-1" id="IUpB2g2LNpbheZ6zbidf">
    <mxGraphModel dx="1290" dy="522" grid="1" gridSize="10" guides="1" tooltips="1" connect="1" arrows="1" fold="1" page="1" pageScale="1" pageWidth="850" pageHeight="1100" math="0" shadow="0">
      <root>
        <mxCell id="0" />
        <mxCell id="1" parent="0" />
        <mxCell id="mBsbx_Oi74R_XpxcR0EO-1" value="wf wm&amp;nbsp;&lt;span style=&quot;text-wrap-mode: nowrap;&quot;&gt;∩&lt;/span&gt;&amp;nbsp;atoms (map (type_pre)) =&amp;nbsp;&lt;span style=&quot;text-wrap-mode: nowrap;&quot;&gt;∅&lt;/span&gt;" style="text;html=1;align=center;verticalAlign=middle;whiteSpace=wrap;rounded=0;strokeColor=#000000;fillColor=#9999FF;" parent="1" vertex="1">
          <mxGeometry x="520" y="380" width="230" height="30" as="geometry" />
        </mxCell>
        <mxCell id="mBsbx_Oi74R_XpxcR0EO-2" value="type_atom&amp;nbsp;∉ wf effect" style="text;html=1;align=center;verticalAlign=middle;resizable=0;points=[];autosize=1;strokeColor=#000000;fillColor=#9999FF;" parent="1" vertex="1">
          <mxGeometry x="385" y="340" width="140" height="30" as="geometry" />
        </mxCell>
        <mxCell id="mBsbx_Oi74R_XpxcR0EO-11" style="edgeStyle=orthogonalEdgeStyle;rounded=0;orthogonalLoop=1;jettySize=auto;html=1;exitX=0.5;exitY=1;exitDx=0;exitDy=0;entryX=0.5;entryY=0;entryDx=0;entryDy=0;" parent="1" source="mBsbx_Oi74R_XpxcR0EO-4" target="mBsbx_Oi74R_XpxcR0EO-5" edge="1">
          <mxGeometry relative="1" as="geometry" />
        </mxCell>
        <mxCell id="mBsbx_Oi74R_XpxcR0EO-4" value="type_atom&amp;nbsp;≠ map (wf atom)" style="text;html=1;align=center;verticalAlign=middle;whiteSpace=wrap;rounded=0;strokeColor=#000000;" parent="1" vertex="1">
          <mxGeometry x="560" y="830" width="180" height="30" as="geometry" />
        </mxCell>
        <mxCell id="mBsbx_Oi74R_XpxcR0EO-5" value="type_atom&amp;nbsp;≠ wf atom" style="text;html=1;align=center;verticalAlign=middle;whiteSpace=wrap;rounded=0;strokeColor=#000000;" parent="1" vertex="1">
          <mxGeometry x="530" y="900" width="180" height="30" as="geometry" />
        </mxCell>
        <mxCell id="mBsbx_Oi74R_XpxcR0EO-7" value="map (type_atom) = type_atom" style="text;html=1;align=center;verticalAlign=middle;resizable=0;points=[];autosize=1;strokeColor=#000000;fillColor=none;" parent="1" vertex="1">
          <mxGeometry x="50" y="900" width="180" height="30" as="geometry" />
        </mxCell>
        <mxCell id="mBsbx_Oi74R_XpxcR0EO-8" value="sf only type_atoms" style="text;html=1;align=center;verticalAlign=middle;whiteSpace=wrap;rounded=0;strokeColor=#000000;" parent="1" vertex="1">
          <mxGeometry x="295" y="870" width="180" height="30" as="geometry" />
        </mxCell>
        <mxCell id="mBsbx_Oi74R_XpxcR0EO-14" style="edgeStyle=orthogonalEdgeStyle;rounded=0;orthogonalLoop=1;jettySize=auto;html=1;entryX=0.545;entryY=0;entryDx=0;entryDy=0;entryPerimeter=0;" parent="1" target="8z-YCa9ct0RzkBhqm-Ky-20" edge="1">
          <mxGeometry relative="1" as="geometry">
            <mxPoint x="685" y="180" as="sourcePoint" />
          </mxGeometry>
        </mxCell>
        <mxCell id="mBsbx_Oi74R_XpxcR0EO-12" value="un_atom (wf fmla_atom) ≠ type_patm" style="text;html=1;align=center;verticalAlign=middle;whiteSpace=wrap;rounded=0;strokeColor=#000000;fillColor=#99FF99;" parent="1" vertex="1">
          <mxGeometry x="570" y="150" width="230" height="30" as="geometry" />
        </mxCell>
        <mxCell id="mBsbx_Oi74R_XpxcR0EO-13" value="atoms (map (param_pre)) only type_atoms" style="text;html=1;align=center;verticalAlign=middle;whiteSpace=wrap;rounded=0;strokeColor=#000000;fillColor=#99FF99;" parent="1" vertex="1">
          <mxGeometry x="620" y="310" width="230" height="30" as="geometry" />
        </mxCell>
        <mxCell id="mBsbx_Oi74R_XpxcR0EO-15" style="edgeStyle=orthogonalEdgeStyle;rounded=0;orthogonalLoop=1;jettySize=auto;html=1;exitX=0.25;exitY=1;exitDx=0;exitDy=0;entryX=0.648;entryY=-0.029;entryDx=0;entryDy=0;entryPerimeter=0;" parent="1" source="mBsbx_Oi74R_XpxcR0EO-13" target="mBsbx_Oi74R_XpxcR0EO-1" edge="1">
          <mxGeometry relative="1" as="geometry" />
        </mxCell>
        <mxCell id="mBsbx_Oi74R_XpxcR0EO-16" value="sf&amp;nbsp;&lt;span style=&quot;text-wrap-mode: nowrap;&quot;&gt;∩ atoms (map (wf fmla)) =&amp;nbsp;&lt;/span&gt;&lt;span style=&quot;text-wrap-mode: nowrap;&quot;&gt;∅&lt;/span&gt;" style="text;html=1;align=center;verticalAlign=middle;whiteSpace=wrap;rounded=0;strokeColor=#000000;fillColor=#9999FF;" parent="1" vertex="1">
          <mxGeometry x="100" y="260" width="210" height="30" as="geometry" />
        </mxCell>
        <mxCell id="mBsbx_Oi74R_XpxcR0EO-30" style="edgeStyle=orthogonalEdgeStyle;rounded=0;orthogonalLoop=1;jettySize=auto;html=1;exitX=0.5;exitY=1;exitDx=0;exitDy=0;" parent="1" source="mBsbx_Oi74R_XpxcR0EO-18" target="mBsbx_Oi74R_XpxcR0EO-29" edge="1">
          <mxGeometry relative="1" as="geometry" />
        </mxCell>
        <mxCell id="mBsbx_Oi74R_XpxcR0EO-31" style="edgeStyle=orthogonalEdgeStyle;rounded=0;orthogonalLoop=1;jettySize=auto;html=1;exitX=0.25;exitY=1;exitDx=0;exitDy=0;" parent="1" source="mBsbx_Oi74R_XpxcR0EO-18" target="mBsbx_Oi74R_XpxcR0EO-22" edge="1">
          <mxGeometry relative="1" as="geometry" />
        </mxCell>
        <mxCell id="mBsbx_Oi74R_XpxcR0EO-34" style="edgeStyle=orthogonalEdgeStyle;rounded=0;orthogonalLoop=1;jettySize=auto;html=1;exitX=0.5;exitY=1;exitDx=0;exitDy=0;" parent="1" source="mBsbx_Oi74R_XpxcR0EO-18" target="mBsbx_Oi74R_XpxcR0EO-12" edge="1">
          <mxGeometry relative="1" as="geometry" />
        </mxCell>
        <mxCell id="mBsbx_Oi74R_XpxcR0EO-18" value="type_patm&amp;nbsp;≠ map (wf patm)" style="text;html=1;align=center;verticalAlign=middle;whiteSpace=wrap;rounded=0;strokeColor=#000000;fillColor=#99FF99;" parent="1" vertex="1">
          <mxGeometry x="300" y="40" width="180" height="30" as="geometry" />
        </mxCell>
        <mxCell id="mBsbx_Oi74R_XpxcR0EO-21" style="edgeStyle=orthogonalEdgeStyle;rounded=0;orthogonalLoop=1;jettySize=auto;html=1;exitX=0.5;exitY=1;exitDx=0;exitDy=0;entryX=0.25;entryY=0;entryDx=0;entryDy=0;" parent="1" source="mBsbx_Oi74R_XpxcR0EO-20" target="mBsbx_Oi74R_XpxcR0EO-16" edge="1">
          <mxGeometry relative="1" as="geometry" />
        </mxCell>
        <mxCell id="Ri20-ipQ2ujPUWnsqL4--3" style="edgeStyle=orthogonalEdgeStyle;rounded=0;orthogonalLoop=1;jettySize=auto;html=1;exitX=0.25;exitY=1;exitDx=0;exitDy=0;entryX=0.25;entryY=0;entryDx=0;entryDy=0;" edge="1" parent="1" source="mBsbx_Oi74R_XpxcR0EO-20" target="Ri20-ipQ2ujPUWnsqL4--2">
          <mxGeometry relative="1" as="geometry" />
        </mxCell>
        <mxCell id="mBsbx_Oi74R_XpxcR0EO-20" value="sf only typeatoms" style="text;html=1;align=center;verticalAlign=middle;whiteSpace=wrap;rounded=0;strokeColor=#000000;fillColor=#99FF99;" parent="1" vertex="1">
          <mxGeometry x="15" y="190" width="180" height="30" as="geometry" />
        </mxCell>
        <mxCell id="mBsbx_Oi74R_XpxcR0EO-22" value="&lt;span style=&quot;text-wrap-mode: nowrap;&quot;&gt;type_predatom&amp;nbsp;∉ atoms (map (wf&amp;nbsp;φ))&lt;/span&gt;" style="text;html=1;align=center;verticalAlign=middle;whiteSpace=wrap;rounded=0;strokeColor=#000000;fillColor=#99FF99;" parent="1" vertex="1">
          <mxGeometry x="150" y="140" width="220" height="30" as="geometry" />
        </mxCell>
        <mxCell id="mBsbx_Oi74R_XpxcR0EO-23" style="edgeStyle=orthogonalEdgeStyle;rounded=0;orthogonalLoop=1;jettySize=auto;html=1;exitX=0.5;exitY=1;exitDx=0;exitDy=0;entryX=0.686;entryY=0.016;entryDx=0;entryDy=0;entryPerimeter=0;" parent="1" source="mBsbx_Oi74R_XpxcR0EO-22" target="mBsbx_Oi74R_XpxcR0EO-16" edge="1">
          <mxGeometry relative="1" as="geometry" />
        </mxCell>
        <mxCell id="mBsbx_Oi74R_XpxcR0EO-29" value="type_atom ≠ map (wf atom)" style="text;html=1;align=center;verticalAlign=middle;whiteSpace=wrap;rounded=0;strokeColor=#000000;fillColor=#99FF99;" parent="1" vertex="1">
          <mxGeometry x="350" y="190" width="180" height="30" as="geometry" />
        </mxCell>
        <mxCell id="mBsbx_Oi74R_XpxcR0EO-32" style="edgeStyle=orthogonalEdgeStyle;rounded=0;orthogonalLoop=1;jettySize=auto;html=1;exitX=0.5;exitY=1;exitDx=0;exitDy=0;entryX=0.332;entryY=0.092;entryDx=0;entryDy=0;entryPerimeter=0;" parent="1" source="mBsbx_Oi74R_XpxcR0EO-29" target="mBsbx_Oi74R_XpxcR0EO-2" edge="1">
          <mxGeometry relative="1" as="geometry" />
        </mxCell>
        <mxCell id="mBsbx_Oi74R_XpxcR0EO-35" value="sf&amp;nbsp;&lt;span style=&quot;text-wrap-mode: nowrap;&quot;&gt;∩&lt;/span&gt;&amp;nbsp;wf wm =&amp;nbsp;&lt;span style=&quot;text-wrap-mode: nowrap;&quot;&gt;∅&lt;/span&gt;" style="text;html=1;align=center;verticalAlign=middle;whiteSpace=wrap;rounded=0;strokeColor=#000000;fillColor=#9999FF;" parent="1" vertex="1">
          <mxGeometry x="15" y="390" width="230" height="30" as="geometry" />
        </mxCell>
        <mxCell id="mBsbx_Oi74R_XpxcR0EO-36" style="edgeStyle=orthogonalEdgeStyle;rounded=0;orthogonalLoop=1;jettySize=auto;html=1;exitX=0.25;exitY=1;exitDx=0;exitDy=0;entryX=0.201;entryY=-0.114;entryDx=0;entryDy=0;entryPerimeter=0;" parent="1" source="mBsbx_Oi74R_XpxcR0EO-20" target="mBsbx_Oi74R_XpxcR0EO-35" edge="1">
          <mxGeometry relative="1" as="geometry" />
        </mxCell>
        <mxCell id="mBsbx_Oi74R_XpxcR0EO-37" style="edgeStyle=orthogonalEdgeStyle;rounded=0;orthogonalLoop=1;jettySize=auto;html=1;exitX=0.25;exitY=1;exitDx=0;exitDy=0;entryX=0.693;entryY=0.025;entryDx=0;entryDy=0;entryPerimeter=0;" parent="1" source="mBsbx_Oi74R_XpxcR0EO-29" target="mBsbx_Oi74R_XpxcR0EO-35" edge="1">
          <mxGeometry relative="1" as="geometry" />
        </mxCell>
        <mxCell id="8z-YCa9ct0RzkBhqm-Ky-2" value="wf_patm_neq_type_patm" style="text;html=1;align=center;verticalAlign=middle;resizable=0;points=[];autosize=1;strokeColor=none;fillColor=none;" parent="1" vertex="1">
          <mxGeometry x="310" y="10" width="160" height="30" as="geometry" />
        </mxCell>
        <mxCell id="8z-YCa9ct0RzkBhqm-Ky-3" value="wf_fmla_atom_neq_type_atom" style="text;html=1;align=center;verticalAlign=middle;resizable=0;points=[];autosize=1;strokeColor=none;fillColor=none;" parent="1" vertex="1">
          <mxGeometry x="350" y="160" width="190" height="30" as="geometry" />
        </mxCell>
        <mxCell id="8z-YCa9ct0RzkBhqm-Ky-4" value="wf_fmla_atom_not_type_atom_unatm" style="text;html=1;align=center;verticalAlign=middle;resizable=0;points=[];autosize=1;strokeColor=none;fillColor=none;" parent="1" vertex="1">
          <mxGeometry x="575" y="120" width="220" height="30" as="geometry" />
        </mxCell>
        <mxCell id="8z-YCa9ct0RzkBhqm-Ky-5" value="wf_fmla_no_type_patms" style="text;html=1;align=center;verticalAlign=middle;resizable=0;points=[];autosize=1;strokeColor=none;fillColor=none;" parent="1" vertex="1">
          <mxGeometry x="110" y="110" width="150" height="30" as="geometry" />
        </mxCell>
        <mxCell id="8z-YCa9ct0RzkBhqm-Ky-6" value="sf_typeatms" style="text;html=1;align=center;verticalAlign=middle;resizable=0;points=[];autosize=1;strokeColor=none;fillColor=none;" parent="1" vertex="1">
          <mxGeometry x="45" y="160" width="90" height="30" as="geometry" />
        </mxCell>
        <mxCell id="8z-YCa9ct0RzkBhqm-Ky-7" value="sf_disj_wf_fmla" style="text;html=1;align=center;verticalAlign=middle;resizable=0;points=[];autosize=1;strokeColor=none;fillColor=none;" parent="1" vertex="1">
          <mxGeometry x="150" y="228" width="110" height="30" as="geometry" />
        </mxCell>
        <mxCell id="8z-YCa9ct0RzkBhqm-Ky-8" value="sf ∩ map (wf effects) =&amp;nbsp;∅" style="text;html=1;align=center;verticalAlign=middle;resizable=0;points=[];autosize=1;strokeColor=#000000;fillColor=#33FFFF;" parent="1" vertex="1">
          <mxGeometry x="350" y="690" width="150" height="30" as="geometry" />
        </mxCell>
        <mxCell id="8z-YCa9ct0RzkBhqm-Ky-9" value="wf_eff_no_type_atoms" style="text;html=1;align=center;verticalAlign=middle;resizable=0;points=[];autosize=1;strokeColor=none;fillColor=none;" parent="1" vertex="1">
          <mxGeometry x="390" y="310" width="140" height="30" as="geometry" />
        </mxCell>
        <mxCell id="8z-YCa9ct0RzkBhqm-Ky-10" value="param_pre_typeatms" style="text;html=1;align=center;verticalAlign=middle;resizable=0;points=[];autosize=1;strokeColor=none;fillColor=none;" parent="1" vertex="1">
          <mxGeometry x="650" y="280" width="140" height="30" as="geometry" />
        </mxCell>
        <mxCell id="8z-YCa9ct0RzkBhqm-Ky-11" value="wf_wm_disj_param_precond" style="text;html=1;align=center;verticalAlign=middle;resizable=0;points=[];autosize=1;strokeColor=none;fillColor=none;" parent="1" vertex="1">
          <mxGeometry x="560" y="348" width="180" height="30" as="geometry" />
        </mxCell>
        <mxCell id="Ri20-ipQ2ujPUWnsqL4--5" value="" style="edgeStyle=orthogonalEdgeStyle;rounded=0;orthogonalLoop=1;jettySize=auto;html=1;" edge="1" parent="1" source="8z-YCa9ct0RzkBhqm-Ky-12" target="8z-YCa9ct0RzkBhqm-Ky-7">
          <mxGeometry relative="1" as="geometry" />
        </mxCell>
        <mxCell id="8z-YCa9ct0RzkBhqm-Ky-12" value="sf_disj_wf_wm" style="text;html=1;align=center;verticalAlign=middle;resizable=0;points=[];autosize=1;strokeColor=none;fillColor=none;" parent="1" vertex="1">
          <mxGeometry x="70" y="360" width="100" height="30" as="geometry" />
        </mxCell>
        <mxCell id="8z-YCa9ct0RzkBhqm-Ky-13" value="map_atom_preserves_istypeatm" style="text;html=1;align=center;verticalAlign=middle;resizable=0;points=[];autosize=1;strokeColor=none;fillColor=none;" parent="1" vertex="1">
          <mxGeometry x="855" y="80" width="200" height="30" as="geometry" />
        </mxCell>
        <mxCell id="8z-YCa9ct0RzkBhqm-Ky-14" value="is_type_patm a &amp;lt;--&amp;gt; is_type_patm (map a)" style="text;html=1;align=center;verticalAlign=middle;resizable=0;points=[];autosize=1;strokeColor=#000000;fillColor=#E6FFCC;" parent="1" vertex="1">
          <mxGeometry x="850" y="120" width="250" height="30" as="geometry" />
        </mxCell>
        <mxCell id="8z-YCa9ct0RzkBhqm-Ky-15" value="map_fmla_preserves_(n)istypeatm" style="text;html=1;align=center;verticalAlign=middle;whiteSpace=wrap;rounded=0;" parent="1" vertex="1">
          <mxGeometry x="760" y="220" width="60" height="30" as="geometry" />
        </mxCell>
        <mxCell id="8z-YCa9ct0RzkBhqm-Ky-16" value="atoms F all (n) type_patm ==&amp;gt; atoms (map F) all (n) type_patm" style="text;html=1;align=center;verticalAlign=middle;resizable=0;points=[];autosize=1;strokeColor=#000000;fillColor=#E6FFCC;" parent="1" vertex="1">
          <mxGeometry x="700" y="250" width="360" height="30" as="geometry" />
        </mxCell>
        <mxCell id="8z-YCa9ct0RzkBhqm-Ky-17" value="" style="endArrow=classic;html=1;rounded=0;exitX=0.497;exitY=0.954;exitDx=0;exitDy=0;exitPerimeter=0;entryX=0.529;entryY=0.034;entryDx=0;entryDy=0;entryPerimeter=0;edgeStyle=orthogonalEdgeStyle;" parent="1" source="8z-YCa9ct0RzkBhqm-Ky-14" target="8z-YCa9ct0RzkBhqm-Ky-16" edge="1">
          <mxGeometry width="50" height="50" relative="1" as="geometry">
            <mxPoint x="1040" y="270" as="sourcePoint" />
            <mxPoint x="1090" y="220" as="targetPoint" />
          </mxGeometry>
        </mxCell>
        <mxCell id="8z-YCa9ct0RzkBhqm-Ky-18" value="" style="endArrow=classic;html=1;rounded=0;exitX=0.449;exitY=1.04;exitDx=0;exitDy=0;exitPerimeter=0;entryX=0.822;entryY=-0.015;entryDx=0;entryDy=0;entryPerimeter=0;edgeStyle=orthogonalEdgeStyle;" parent="1" source="8z-YCa9ct0RzkBhqm-Ky-16" target="mBsbx_Oi74R_XpxcR0EO-13" edge="1">
          <mxGeometry width="50" height="50" relative="1" as="geometry">
            <mxPoint x="1040" y="350" as="sourcePoint" />
            <mxPoint x="1090" y="300" as="targetPoint" />
          </mxGeometry>
        </mxCell>
        <mxCell id="8z-YCa9ct0RzkBhqm-Ky-19" value="wf_wm_no_typeatms" style="text;html=1;align=center;verticalAlign=middle;resizable=0;points=[];autosize=1;strokeColor=none;fillColor=none;" parent="1" vertex="1">
          <mxGeometry x="540" y="228" width="140" height="30" as="geometry" />
        </mxCell>
        <mxCell id="8z-YCa9ct0RzkBhqm-Ky-20" value="wf wm no typeatoms" style="text;html=1;align=center;verticalAlign=middle;resizable=0;points=[];autosize=1;strokeColor=#000000;fillColor=#99FF99;" parent="1" vertex="1">
          <mxGeometry x="540" y="250" width="130" height="30" as="geometry" />
        </mxCell>
        <mxCell id="8z-YCa9ct0RzkBhqm-Ky-21" value="" style="endArrow=classic;html=1;rounded=0;exitX=0.308;exitY=1;exitDx=0;exitDy=0;exitPerimeter=0;entryX=0.121;entryY=0.059;entryDx=0;entryDy=0;entryPerimeter=0;edgeStyle=orthogonalEdgeStyle;" parent="1" source="8z-YCa9ct0RzkBhqm-Ky-20" target="mBsbx_Oi74R_XpxcR0EO-1" edge="1">
          <mxGeometry width="50" height="50" relative="1" as="geometry">
            <mxPoint x="690" y="310" as="sourcePoint" />
            <mxPoint x="740" y="260" as="targetPoint" />
          </mxGeometry>
        </mxCell>
        <mxCell id="Ri20-ipQ2ujPUWnsqL4--2" value="sf&amp;nbsp;&lt;span style=&quot;text-wrap-mode: nowrap;&quot;&gt;∩&lt;/span&gt;&amp;nbsp;wf eff =&amp;nbsp;&lt;span style=&quot;text-wrap-mode: nowrap;&quot;&gt;∅&lt;/span&gt;" style="text;html=1;align=center;verticalAlign=middle;whiteSpace=wrap;rounded=0;strokeColor=#000000;fillColor=#9999FF;" vertex="1" parent="1">
          <mxGeometry x="320" y="430" width="155" height="30" as="geometry" />
        </mxCell>
        <mxCell id="Ri20-ipQ2ujPUWnsqL4--4" value="" style="endArrow=classic;html=1;rounded=0;exitX=0.35;exitY=0.92;exitDx=0;exitDy=0;exitPerimeter=0;entryX=0.5;entryY=0;entryDx=0;entryDy=0;edgeStyle=orthogonalEdgeStyle;" edge="1" parent="1" source="mBsbx_Oi74R_XpxcR0EO-2" target="Ri20-ipQ2ujPUWnsqL4--2">
          <mxGeometry width="50" height="50" relative="1" as="geometry">
            <mxPoint x="660" y="300" as="sourcePoint" />
            <mxPoint x="710" y="250" as="targetPoint" />
          </mxGeometry>
        </mxCell>
      </root>
    </mxGraphModel>
  </diagram>
</mxfile>
